<svg version="1.1" xmlns="http://www.w3.org/2000/svg" viewBox="0 0 512 512">
<path d="M256,340c-15.5,0-28,12.5-28,28s12.5,28,28,28s28-12.5,28-28S271.5,340,256,340z M263.7,316h-16c-6.6,0-12-5.4-12-12v-0.4
	c0-70.3,77.4-63.6,77.4-107.4c0-20-17.8-40.2-57.4-40.2c-29.1,0-44.3,9.6-59.2,28.7c-3.9,5-11.1,6-16.2,2.4l-13.1-9.1
	c-5.6-3.9-6.9-11.8-2.6-17.2c21.2-27.2,46.4-44.7,91.2-44.7c52.3,0,97.4,29.8,97.4,80.2c0,67.4-77.4,63.8-77.4,107.4v0.4
	C275.7,310.6,270.3,316,263.7,316L263.7,316z M256,40c118.6,0,216,96.1,216,216c0,119.3-96.6,216-216,216c-119.2,0-216-96.6-216-216
	C40,136.8,136.6,40,256,40 M256,8C119,8,8,119.1,8,256c0,137,111,248,248,248s248-111,248-248C504,119.1,393,8,256,8z"/>
</svg>
