<svg version="1.1" xmlns="http://www.w3.org/2000/svg" viewBox="0 0 438.5 438.5">
<path d="M421.1,134.2c-11.6-27-27.2-50.3-46.8-69.9c-19.6-19.6-42.9-35.2-70-46.8C277.3,5.8,249,0,219.3,0
	c-28,0-55.1,5.3-81.2,15.8c-26.2,10.6-49.4,25.5-69.8,44.7L31.1,23.7c-5.7-5.9-12.3-7.2-19.7-4C3.8,22.9,0,28.6,0,36.5l0,127.9
	c0,4.9,1.8,9.2,5.4,12.8c3.6,3.6,7.9,5.4,12.9,5.4h127.9c8,0,13.6-3.8,16.8-11.4c3.2-7.4,1.9-14-4-19.7l-39.1-39.4
	c13.3-12.6,28.6-22.2,45.7-29c17.1-6.8,35-10.1,53.7-10.1c19.8,0,38.7,3.9,56.7,11.6c18,7.7,33.5,18.1,46.7,31.3
	c13.1,13.1,23.6,28.7,31.3,46.7c7.7,18,11.6,36.9,11.6,56.7c0,19.8-3.9,38.7-11.6,56.7c-7.7,18-18.1,33.5-31.3,46.7
	c-13.1,13.1-28.7,23.6-46.7,31.3c-18,7.7-36.9,11.6-56.7,11.6c-22.7,0-44.1-4.9-64.2-14.8c-20.2-9.9-37.2-23.9-51.1-42
	c-1.3-1.9-3.5-3-6.6-3.4c-2.9,0-5.2,0.9-7.1,2.6l-39.1,39.4c-1.5,1.5-2.3,3.5-2.4,5.9c-0.1,2.4,0.5,4.5,1.9,6.4
	c20.7,25.1,45.9,44.6,75.4,58.4c29.5,13.8,60.6,20.7,93.4,20.7c29.7,0,58-5.8,85.1-17.4c27-11.6,50.3-27.2,69.9-46.8
	c19.6-19.6,35.2-42.9,46.8-69.9s17.4-55.4,17.4-85.1C438.5,189.6,432.7,161.2,421.1,134.2z"/>
</svg>
