<svg xmlns="http://www.w3.org/2000/svg" version="1" viewBox="0 0 16 16"><path d="M3.777 1.671c-.42.039-.77.34-.88.755l-.03.12V5.42c0 1.579.003 2.909.009 2.953.044.38.316.707.698.837l.115.04 2.92.002 2.92.004.513.401.82.642.342.268a.389.389 0 0 0 .062.043c.03.016.03.015.028-.663 0-.372.003-.68.006-.685.004-.003.13-.007.278-.009.3-.003.416-.022.58-.1a.771.771 0 0 0 .246-.17.99.99 0 0 0 .308-.559c.017-.084.022-5.79.006-5.9a1.235 1.235 0 0 0-.132-.369 1.036 1.036 0 0 0-.634-.462c-.097-.025-.32-.027-4.087-.028-2.192-.001-4.03.003-4.088.007zm1.86 2.474c.036.019.077.057.093.082.015.025.075.181.133.346l.344.993c.064.178.118.339.121.356.004.02.012.034.018.034.004 0 .03-.062.056-.137.046-.134.08-.234.225-.643.041-.118.078-.224.081-.236.003-.012.034-.099.067-.192.033-.092.085-.24.113-.327.057-.167.107-.245.186-.287.04-.022.104-.025.503-.025.419 0 .461.003.498.028.089.058.084-.006.084 1.38 0 1.25 0 1.273-.03 1.32-.045.075-.095.089-.338.089-.236 0-.29-.014-.334-.08-.025-.038-.027-.104-.034-1.027l-.007-.985-.131.367-.171.476a76.66 76.66 0 0 0-.347.967c-.054.15-.079.192-.154.242-.049.032-.065.035-.265.035-.204 0-.217 0-.265-.037-.079-.054-.095-.08-.155-.249l-.07-.193c-.01-.02-.017-.044-.02-.051-.009-.034-.552-1.545-.557-1.551-.004-.003-.006.433-.007.968 0 1.051.003 1.022-.08 1.082-.037.028-.062.031-.27.033-.26.003-.311-.01-.358-.087-.028-.046-.03-.081-.03-1.311 0-1.405-.004-1.34.098-1.39.053-.024.092-.027.499-.027.439 0 .442 0 .505.037zm3.441-.01c.033.014.08.042.106.06.027.022.186.251.382.553.184.283.339.516.344.516.004 0 .03-.034.053-.074a54.45 54.45 0 0 0 .339-.523c.367-.574.35-.561.78-.558.21 0 .235.003.253.028.012.015.02.047.02.07 0 .042-.051.124-.766 1.23l-.309.476v.436c-.001.591.01.57-.353.575-.2 0-.236-.001-.29-.027-.098-.047-.098-.05-.1-.539 0-.484.01-.426-.105-.6-.405-.618-.978-1.522-.978-1.544 0-.04.028-.084.058-.096.015-.006.136-.01.269-.01.187.002.253.008.297.027zm-1.162 6.72l-.052.012c-.07.016-.153.11-.167.193-.018.094.014.143.241.365.237.234.27.252.383.218.055-.016.16-.115.164-.153 0-.009.003-.03.006-.047.014-.078-.021-.131-.226-.337a4.26 4.26 0 0 0-.23-.218c-.033-.02-.101-.039-.119-.033zm1.36.06c-.034.031-.233.227-.442.437-.402.405-.411.415-.39.528.011.053.067.126.13.164a.203.203 0 0 0 .193 0c.049-.025.836-.803.862-.853.032-.06.031-.122-.006-.194a.231.231 0 0 0-.218-.136c-.057 0-.077.01-.13.055zm-8.656.921a.202.202 0 0 0-.078.05l-.035.039-.004 1.126L.5 14.18l.032.048c.02.028.05.056.071.062.02.007.127.014.237.012.22-.003.265-.016.295-.094.009-.024.016-.202.016-.427l.001-.39.26.007c.257.004.26.004.354.051a.59.59 0 0 1 .261.255c.032.053.11.175.172.273.204.316.212.322.562.325.138 0 .262-.004.275-.01.034-.018.044-.06.028-.106a9.256 9.256 0 0 0-.477-.743.937.937 0 0 0-.16-.15l-.082-.056.083-.016c.045-.01.132-.041.193-.07.249-.12.349-.263.36-.516.018-.385-.21-.669-.628-.78-.081-.023-.193-.026-.892-.027-.44 0-.819.003-.84.009zm1.451.502c.128.034.19.077.233.165.035.071.037.096.015.195-.02.082-.13.162-.274.194a4.504 4.504 0 0 1-.479.017h-.415v-.294c0-.257.003-.294.023-.299.012-.003.2-.003.414-.003.307.001.413.007.483.025zm1.942.045a.899.899 0 0 0-.803.682c-.035.138-.04.42-.01.565.077.354.309.585.683.678.104.026.16.03.348.028.453-.01.715-.093.838-.271.067-.099.08-.24.028-.292-.027-.028-.049-.03-.196-.032-.202-.001-.243.009-.33.09a.557.557 0 0 1-.651.025.448.448 0 0 1-.127-.238c-.007-.044-.004-.047.032-.048l.677-.003c.589-.003.639-.004.662-.03.042-.04.042-.343.001-.486-.137-.489-.56-.733-1.153-.668zm.324.406c.143.04.22.143.247.336l.007.049h-.156c-.46 0-.64 0-.648-.007-.015-.014.04-.198.072-.248.084-.128.286-.182.477-.13zm1.978-.42a1.25 1.25 0 0 1-.16.014c-.17.01-.205.016-.323.048a.702.702 0 0 0-.311.18.516.516 0 0 0-.07.52c.1.208.304.318.793.426.128.028.327.088.383.118.115.058.11.17-.009.222a.965.965 0 0 1-.455.037.505.505 0 0 1-.199-.112c-.082-.074-.097-.078-.277-.081-.191-.003-.247.009-.262.056-.035.106.03.278.136.362a.858.858 0 0 0 .287.128c.006.003.08.016.163.028.254.036.576.024.843-.03a.775.775 0 0 0 .342-.186c.14-.154.15-.422.023-.601a.776.776 0 0 0-.22-.183c-.079-.04-.24-.093-.387-.127-.34-.08-.394-.094-.481-.132-.095-.043-.123-.075-.123-.14 0-.091.133-.144.361-.146a.41.41 0 0 1 .332.125c.076.068.118.078.327.078.132 0 .162-.004.188-.028.07-.063.012-.282-.1-.375-.132-.11-.327-.17-.614-.186a1.751 1.751 0 0 1-.187-.014zm4.79.01c-.152.015-.253.063-.398.183l-.066.056-.004-.075c-.007-.119-.03-.13-.278-.132-.235-.001-.292.01-.31.068-.016.047-.014 1.718 0 1.764.018.052.067.06.3.059.197-.001.226-.004.254-.03.031-.027.031-.036.031-.624 0-.682-.004-.654.136-.759.22-.162.449-.106.515.129.01.04.018.25.018.634 0 .338.009.585.016.598.028.046.074.053.299.052.22-.001.227-.003.255-.037.028-.034.03-.062.028-.632l-.003-.595.035-.038c.128-.141.223-.199.334-.203.145-.006.232.062.277.213.021.07.025.168.027.642 0 .308.006.573.012.591.017.052.066.06.302.059.22-.001.226-.003.254-.037.028-.035.03-.057.025-.677-.006-.619-.007-.646-.038-.728a.922.922 0 0 0-.16-.283c-.218-.218-.556-.262-.874-.113-.087.04-.252.162-.287.213l-.022.031-.025-.035a.693.693 0 0 0-.653-.293zm3.152.02c-.26.057-.467.172-.574.314a1.066 1.066 0 0 0-.18.393c-.028.134-.024.429.009.554.062.253.218.449.446.564.202.1.308.12.615.109.338-.01.537-.055.69-.156.137-.089.218-.311.145-.4-.025-.032-.037-.035-.202-.035-.096 0-.193.004-.215.01a.392.392 0 0 0-.11.073c-.113.097-.18.12-.345.12-.208 0-.326-.06-.398-.2-.03-.06-.053-.174-.034-.175l.666-.001h.654l.038-.034c.038-.034.04-.037.037-.21a.896.896 0 0 0-.099-.453.692.692 0 0 0-.36-.364 1.052 1.052 0 0 0-.51-.122 1.465 1.465 0 0 0-.273.013zm.436.412c.041.02.093.058.114.086.035.045.084.19.084.25 0 .028.017.028-.553.028h-.207c-.039 0-.04-.002-.031-.075.026-.216.191-.344.43-.328.05.003.12.02.163.04zm-7.03-.365l-.034.034v.608c0 .651.003.678.078.841a.66.66 0 0 0 .424.37.61.61 0 0 0 .271.032.858.858 0 0 0 .56-.203l.051-.044.001.041c.003.173.014.177.31.177.231-.001.235-.001.262-.037.025-.034.028-.088.028-.912l.001-.875-.034-.033c-.034-.033-.041-.034-.271-.033-.206.003-.242.006-.264.03-.025.023-.026.072-.03.632l-.002.606-.046.043c-.205.192-.489.252-.623.131a.392.392 0 0 1-.107-.188c-.006-.031-.012-.307-.014-.61-.003-.304-.004-.564-.006-.578-.003-.053-.07-.067-.302-.067-.21 0-.22 0-.255.035z"/></svg>
