<svg width="16" height="16" viewBox="0 0 16 16" fill="none" xmlns="http://www.w3.org/2000/svg">
<g clip-path="url(#clip0)">
<path d="M15.7926 7.43915C15.6521 7.27344 12.2935 3.38635 8.0001 3.38635C3.70652 3.38635 0.348111 7.27344 0.20725 7.43932C-0.0691105 7.76426 -0.0691105 8.23574 0.207413 8.56101C0.348111 8.72673 3.70652 12.6136 8.0001 12.6136C12.2935 12.6136 15.6521 8.7264 15.7928 8.56068C16.0692 8.23574 16.0692 7.76426 15.7926 7.43915ZM9.31156 5.72136C9.60027 5.56377 10.0029 5.7446 10.2107 6.1251C10.4185 6.50577 10.3528 6.94216 10.0641 7.09976C9.77557 7.25751 9.37281 7.07652 9.16485 6.69602C8.95721 6.31535 9.02269 5.87896 9.31156 5.72136ZM8.0001 11.2054C5.00092 11.2054 2.47695 8.90203 1.60335 8C2.19328 7.39074 3.53641 6.14314 5.2698 5.39708C4.9317 5.91145 4.73349 6.52608 4.73349 7.18765C4.73349 8.99171 6.19588 10.4541 7.99994 10.4541C9.804 10.4541 11.2666 8.99171 11.2666 7.18765C11.2666 6.52608 11.0685 5.91145 10.7304 5.39708C12.4638 6.1433 13.8068 7.39074 14.3967 8C13.5231 8.90252 10.9991 11.2054 8.0001 11.2054Z" fill="#819EA6"/>
</g>
<defs>
<clipPath id="clip0">
<rect width="16" height="16" fill="white"/>
</clipPath>
</defs>
</svg>
