<svg width="21" height="21" viewBox="0 0 21 21" fill="none" xmlns="http://www.w3.org/2000/svg">
<path d="M19.4573 13.5868C19.4558 13.5853 19.4544 13.5837 19.4529 13.5822L17.4913 11.6167C17.003 11.1274 16.3537 10.8579 15.663 10.8579C14.9736 10.8579 14.325 11.1265 13.8371 11.6142C13.8362 11.6151 13.8354 11.6158 13.8347 11.6167C13.834 11.6173 13.8334 11.618 13.8329 11.6184L12.5716 12.8823L7.34836 7.6486L8.60831 6.38601C8.60977 6.38472 8.61124 6.38326 8.61252 6.38179C9.61942 5.37164 9.61905 3.72908 8.61124 2.7193L6.65842 0.762475C6.65659 0.760641 6.65475 0.758806 6.65292 0.756972C6.65182 0.755871 6.65054 0.75477 6.64926 0.753486C6.6434 0.747798 6.63754 0.742111 6.63132 0.736424C6.14572 0.261619 5.50613 0 4.82626 0C4.13962 0 3.4938 0.266389 3.00601 0.75055C3.00326 0.753119 3.00052 0.755871 2.99795 0.758623C2.99466 0.761742 2.99154 0.765044 2.98843 0.768163L1.2427 2.51749C-0.0518531 3.8144 -0.34647 5.9079 0.412869 8.41218C1.12625 10.7646 2.70022 13.2435 4.84476 15.3926C7.83176 18.3855 11.4741 20.2447 14.3503 20.2447C15.7267 20.2447 16.8832 19.8148 17.6942 19.0024C17.7184 18.9782 18.6203 18.0745 19.443 17.25C19.4476 17.2458 19.4518 17.2414 19.4562 17.237C20.4441 16.2406 20.4547 14.6292 19.4846 13.6159C19.4758 13.6059 19.4667 13.5963 19.4573 13.5868Z" fill="url(#paint0_linear)"/>
<defs>
<linearGradient id="paint0_linear" x1="10.1024" y1="0" x2="10.1024" y2="20.2447" gradientUnits="userSpaceOnUse">
<stop stop-color="#00EF87"/>
<stop offset="1" stop-color="#00BBBA"/>
</linearGradient>
</defs>
</svg>
