<svg width="12" height="10" viewBox="0 0 12 10" fill="none" xmlns="http://www.w3.org/2000/svg">
<path d="M6.35156 5.98242C6.35156 5.38997 6.44271 4.81576 6.625 4.25977C6.80729 3.70378 7.0944 3.1888 7.48633 2.71484C7.88737 2.24089 8.40234 1.81706 9.03125 1.44336C9.66927 1.06055 10.444 0.746094 11.3555 0.5V1.94922C10.9544 2.09505 10.599 2.24089 10.2891 2.38672C9.97917 2.53255 9.7194 2.69206 9.50977 2.86523C9.30925 3.0293 9.1543 3.21615 9.04492 3.42578C8.94466 3.6263 8.89453 3.86328 8.89453 4.13672C8.89453 4.31901 8.94466 4.46484 9.04492 4.57422C9.14518 4.68359 9.27279 4.78841 9.42773 4.88867C9.58268 4.98893 9.74675 5.09375 9.91992 5.20312C10.0931 5.30339 10.2572 5.43555 10.4121 5.59961C10.5671 5.75456 10.6947 5.95508 10.7949 6.20117C10.8952 6.44727 10.9453 6.75716 10.9453 7.13086C10.9453 7.75977 10.7493 8.23828 10.3574 8.56641C9.97461 8.89453 9.49609 9.05859 8.92188 9.05859C8.12891 9.05859 7.5 8.78516 7.03516 8.23828C6.57943 7.69141 6.35156 6.93945 6.35156 5.98242ZM0.5 5.98242C0.5 5.38997 0.591146 4.81576 0.773438 4.25977C0.955729 3.70378 1.24284 3.1888 1.63477 2.71484C2.03581 2.24089 2.55078 1.81706 3.17969 1.44336C3.81771 1.06055 4.59245 0.746094 5.50391 0.5V1.94922C5.09375 2.09505 4.73372 2.24089 4.42383 2.38672C4.12305 2.53255 3.86784 2.69206 3.6582 2.86523C3.45768 3.0293 3.30273 3.21615 3.19336 3.42578C3.0931 3.6263 3.04297 3.86328 3.04297 4.13672C3.04297 4.31901 3.0931 4.46484 3.19336 4.57422C3.29362 4.68359 3.42122 4.78841 3.57617 4.88867C3.73112 4.98893 3.89518 5.09375 4.06836 5.20312C4.24154 5.30339 4.4056 5.43555 4.56055 5.59961C4.71549 5.75456 4.8431 5.95508 4.94336 6.20117C5.04362 6.44727 5.09375 6.75716 5.09375 7.13086C5.09375 7.75977 4.89779 8.23828 4.50586 8.56641C4.12305 8.89453 3.64453 9.05859 3.07031 9.05859C2.27734 9.05859 1.64844 8.78516 1.18359 8.23828C0.727865 7.69141 0.5 6.93945 0.5 5.98242Z" fill="white"/>
</svg>
