<svg width="63" height="24" viewBox="0 0 63 24" fill="none" xmlns="http://www.w3.org/2000/svg">
<g clip-path="url(#clip0)">
<path fill-rule="evenodd" clip-rule="evenodd" d="M43.0472 13.8228L43.6588 14.0076C43.6175 14.179 43.553 14.3222 43.4653 14.4373C43.3775 14.5529 43.2677 14.6402 43.1358 14.699C43.0053 14.7568 42.839 14.7857 42.6369 14.7857C42.3912 14.7857 42.1903 14.7506 42.0342 14.6804C41.8796 14.6082 41.7455 14.4822 41.632 14.3026C41.5192 14.123 41.4629 13.8928 41.4629 13.612C41.4629 13.2384 41.562 12.9514 41.7602 12.7511C41.9598 12.5498 42.2411 12.4492 42.6041 12.4492C42.8884 12.4492 43.1119 12.507 43.2745 12.6226C43.438 12.7382 43.5593 12.9147 43.6384 13.1522L43.0221 13.2884C43.0013 13.2193 42.9788 13.1692 42.9546 13.1382C42.9159 13.0845 42.8684 13.0438 42.8122 13.0159C42.7557 12.987 42.6925 12.9725 42.6225 12.9725C42.4645 12.9725 42.3434 13.036 42.2589 13.163C42.1952 13.258 42.1634 13.4066 42.1634 13.6089C42.1634 13.8598 42.2016 14.0316 42.278 14.1245C42.3546 14.2175 42.4617 14.2639 42.5994 14.2639C42.7331 14.2639 42.8337 14.2267 42.9013 14.1524C42.9705 14.0781 43.0205 13.9697 43.0512 13.8273L43.0472 13.8228ZM43.9084 13.6178C43.9084 13.2492 44.0111 12.9623 44.2165 12.7569C44.4218 12.5514 44.7077 12.4487 45.0743 12.4487C45.4503 12.4487 45.7401 12.5499 45.9438 12.7522C46.1475 12.9535 46.2494 13.2361 46.2494 13.6001C46.2494 13.8642 46.2047 14.0807 46.1153 14.2498C46.0276 14.4181 45.8996 14.5497 45.7313 14.6447C45.5641 14.7382 45.3556 14.7849 45.1058 14.7849C44.8518 14.7849 44.6413 14.7447 44.474 14.6642C44.3089 14.5836 44.1742 14.4552 44.0699 14.2789C43.9667 14.1034 43.9151 13.8836 43.9151 13.6193L43.9084 13.6178ZM44.606 13.6209C44.606 13.8488 44.6481 14.0126 44.7323 14.1123C44.817 14.2119 44.9321 14.2617 45.0776 14.2617C45.2273 14.2617 45.3434 14.2126 45.426 14.1143C45.5075 14.0161 45.5483 13.8409 45.5483 13.589C45.5483 13.3763 45.505 13.2213 45.4182 13.124C45.3326 13.0249 45.2164 12.9753 45.0699 12.9753C44.9284 12.9753 44.8154 13.0249 44.7308 13.124C44.6451 13.222 44.6022 13.3867 44.6022 13.6179L44.606 13.6209ZM46.6193 12.4871H47.5372L47.8918 13.8612L48.2444 12.4871H49.1595V14.7453H48.5896V13.0235L48.1484 14.7453H47.6327L47.193 13.0235V14.7453H46.6201V12.4873L46.6193 12.4871ZM49.5997 12.4871H50.7599C51.0125 12.4871 51.2014 12.5472 51.3266 12.6674C51.453 12.7874 51.5163 12.9581 51.5163 13.1796C51.5163 13.4074 51.4474 13.5853 51.3097 13.7133C51.173 13.8413 50.9641 13.9053 50.6829 13.9053H50.3008V14.7436H49.5998V12.4847L49.5997 12.4871ZM50.3008 13.4498H50.4717C50.6062 13.4498 50.7007 13.4267 50.7551 13.3805C50.8096 13.3334 50.8368 13.2733 50.8368 13.2005C50.8368 13.1296 50.8132 13.0695 50.7659 13.0202C50.7187 12.9707 50.63 12.9459 50.4996 12.9459H50.3001V13.4491L50.3008 13.4498ZM51.8828 12.4871H52.5795V14.1894H53.668V14.7453H51.8812V12.4873L51.8828 12.4871ZM54.0164 12.4871H54.7148V14.7453H54.0149V12.4873L54.0164 12.4871ZM56.6038 14.3726H55.8079L55.698 14.7455H54.9842L55.8327 12.4879H56.5929L57.4415 14.747H56.7122L56.6007 14.3754L56.6038 14.3726ZM56.4567 13.8844L56.2059 13.0727L55.9566 13.8844H56.4536H56.4567ZM57.6706 12.4871H58.3225L59.1726 13.7364V12.4871H59.8306V14.7453H59.1726L58.3271 13.5053V14.7456H57.6706V12.487V12.4871ZM60.1372 12.4871H62.2585V13.0449H61.5462V14.7453H60.8495V13.0452H60.1372V12.4874V12.4871Z" fill="#225E63"/>
<path fill-rule="evenodd" clip-rule="evenodd" d="M34.6445 15.9341L36.6656 15.2971L36.0112 13.8393C35.5244 14.4385 35.045 15.2158 34.644 15.9327L34.6445 15.9341ZM33.9559 9.26055L29.9927 0.43103L0.978516 2.07851L9.0165 24.0114L24.4895 19.1343C23.5079 17.7197 23.1455 16.038 24.282 15.2161C25.5564 14.2964 27.4717 15.3601 28.7027 16.8729C29.8841 14.8879 33.1977 10.3062 33.9564 9.26102L33.9559 9.26055Z" fill="#225E63"/>
<path fill-rule="evenodd" clip-rule="evenodd" d="M29.0917 6.81072C30.3061 6.81072 31.2907 5.88215 31.2907 4.73665C31.2907 3.59116 30.305 2.66321 29.0911 2.66321C27.8762 2.66321 26.8919 3.59178 26.8919 4.73743C26.8919 5.88323 27.8762 6.81165 29.0913 6.81165L29.0917 6.81072ZM27.2925 7.71033H30.891V17.1063H27.2925V7.71064V7.71033ZM25.5157 10.4525C25.5405 10.4675 25.5622 10.4552 25.5622 10.4256V8.0454C25.5622 8.01505 25.5405 7.97882 25.5142 7.96458C25.5142 7.96458 25.0419 7.65691 23.6019 7.57128C23.5245 7.5287 22.2703 7.52236 21.9235 7.57128C16.6899 7.9909 16.4964 11.777 16.4964 11.9501V12.8691C16.4964 12.9813 16.4964 16.8525 21.9235 17.1953C22.453 17.2352 23.492 17.1953 23.6019 17.1953C24.8515 17.1953 25.717 16.8186 25.717 16.8186C25.7433 16.8065 25.7666 16.7737 25.7666 16.7436V14.5155C25.7666 14.4851 25.7464 14.4743 25.7201 14.4899C25.7201 14.4899 25.3315 14.8027 23.6236 14.9684C23.139 15.0226 22.9098 14.9978 22.7348 14.9684C20.3131 14.5612 20.197 12.7867 20.197 12.7867C20.1939 12.7573 20.1908 12.7093 20.1908 12.6799V12.0032C20.1908 11.9738 20.1939 11.9258 20.197 11.8964C20.197 11.8964 20.3596 9.99498 22.7333 9.79368H23.6205C24.6688 9.93459 25.5095 10.4533 25.5095 10.4533L25.5157 10.4525ZM6.51562 17.0688C6.51562 17.0988 6.53932 17.123 6.56935 17.123H10.0746C10.1043 17.123 10.1285 17.0988 10.1285 17.0699V14.3427C10.1285 14.3139 10.1525 14.291 10.1827 14.2921C10.1827 14.2921 15.7781 14.6967 15.7781 10.9404C15.7781 7.9765 12.2674 7.65165 11.1117 7.70584C11.0885 7.70739 6.56997 7.70584 6.56997 7.70584C6.54055 7.70584 6.51578 7.73139 6.51578 7.76034V17.0692L6.51562 17.0688ZM10.0665 12.2084V9.75172H10.924C10.924 9.75172 12.172 9.80808 12.2696 10.6568C12.2928 10.7233 12.2866 11.1383 12.2696 11.1615C12.1101 12.1599 11.0262 12.2089 11.0262 12.2089L10.0693 12.2073L10.0665 12.2084Z" fill="#FEFEFE"/>
<path fill-rule="evenodd" clip-rule="evenodd" d="M29.1905 21.6426C29.4831 21.6426 29.7069 21.6426 30.0766 21.4785C31.3545 20.8068 35.655 10.3041 40.191 7.07355C40.2173 7.0528 40.255 7.02277 40.2766 6.99195C40.3057 6.94937 40.3068 6.90586 40.3068 6.90586C40.3068 6.90586 40.3068 6.69064 39.6342 6.69064C35.596 6.5807 31.3968 15.0457 29.1903 18.3949C29.1625 18.4321 29.0107 18.3949 29.0107 18.3949C29.0107 18.3949 27.532 16.6499 26.2468 15.981C26.2205 15.967 26.0734 15.9221 25.9217 15.933C25.821 15.933 25.2234 16.0522 24.9447 16.3479C24.6164 16.6948 24.6226 16.8899 24.6257 17.3126C24.6272 17.3466 24.6489 17.4875 24.6892 17.5588C25.0035 18.1084 26.4388 20.0811 27.6141 21.1696C27.7968 21.2997 28.0739 21.645 29.1919 21.645L29.1905 21.6426Z" fill="#2BBC5D"/>
<path fill-rule="evenodd" clip-rule="evenodd" d="M41.3848 3.89042H44.7448C45.4075 3.89042 45.9418 3.98023 46.3477 4.15984C46.7572 4.33966 47.095 4.59773 47.3612 4.93404C47.6276 5.26952 47.8206 5.66039 47.9403 6.10663C48.0601 6.55257 48.1199 7.02483 48.1199 7.52341C48.1199 8.30483 48.0301 8.91231 47.8505 9.34586C47.6742 9.77528 47.4279 10.1366 47.1116 10.4297C46.7954 10.7188 46.4559 10.9113 46.0931 11.0073C45.5971 11.1394 45.1477 11.2055 44.7449 11.2055H41.3849V3.88795L41.3848 3.89042ZM43.6466 5.54797V9.54746H44.1997C44.6725 9.54746 45.0087 9.49584 45.2084 9.39262C45.408 9.2863 45.5642 9.10359 45.6769 8.84449C45.7896 8.58126 45.846 8.15701 45.846 7.57172C45.846 6.79649 45.7192 6.26591 45.4655 5.97997C45.2126 5.69404 44.7931 5.55107 44.207 5.55107H43.6429L43.6466 5.54797ZM48.7351 8.78875L50.8858 8.65404C50.9323 9.00397 51.0267 9.2703 51.1692 9.45301C51.4014 9.74926 51.7343 9.89739 52.1679 9.89739C52.491 9.89739 52.7387 9.82255 52.9111 9.67288C53.0866 9.5201 53.1743 9.34359 53.1743 9.14333C53.1743 8.95442 53.0907 8.78513 52.9235 8.63546C52.7563 8.48578 52.3702 8.34488 51.7653 8.21275C50.7733 7.98978 50.0657 7.69352 49.6425 7.32397C49.2161 6.95546 49.003 6.48475 49.003 5.91184C49.003 5.5361 49.1114 5.18204 49.3281 4.84965C49.547 4.51417 49.8747 4.25146 50.3114 4.06152C50.7511 3.86849 51.3519 3.77197 52.1137 3.77197C53.0479 3.77197 53.7596 3.94694 54.2489 4.29688C54.7403 4.64371 55.0329 5.19649 55.1269 5.9552L52.9947 6.08062C52.938 5.75133 52.8177 5.51184 52.634 5.36217C52.4533 5.21249 52.2035 5.13765 51.8845 5.13765C51.6213 5.13765 51.4231 5.19442 51.29 5.30797C51.1558 5.41842 51.0887 5.55313 51.0887 5.7121C51.0887 5.82875 51.1434 5.93352 51.2528 6.02642C51.3591 6.12346 51.612 6.21378 52.0115 6.29739C53.0004 6.51107 53.7077 6.72784 54.1334 6.94772C54.5628 7.16449 54.8741 7.43443 55.0671 7.75752C55.2642 8.08062 55.3628 8.44191 55.3628 8.84139C55.3628 9.31107 55.2328 9.7441 54.9726 10.1405C54.7125 10.5369 54.3497 10.8381 53.8841 11.0443C53.4196 11.2456 52.833 11.3462 52.1244 11.3462C50.8795 11.3462 50.0172 11.1067 49.5375 10.6278C49.0575 10.1488 48.786 9.53977 48.723 8.80067L48.7351 8.78875ZM55.949 8.78875L58.0998 8.65404C58.1462 9.00397 58.2407 9.2703 58.3831 9.45301C58.6154 9.74926 58.9483 9.89739 59.3818 9.89739C59.7049 9.89739 59.9527 9.82255 60.125 9.67288C60.3016 9.5201 60.3898 9.34359 60.3898 9.14333C60.3898 8.95442 60.3062 8.78513 60.139 8.63546C59.9718 8.48578 59.5857 8.34488 58.9808 8.21275C57.9888 7.98978 57.2812 7.69352 56.858 7.32397C56.4316 6.95546 56.2185 6.48475 56.2185 5.91184C56.2185 5.5361 56.3263 5.18204 56.5421 4.84965C56.7619 4.51417 57.0897 4.25146 57.5253 4.06152C57.964 3.86849 58.5648 3.77197 59.3276 3.77197C60.2618 3.77197 60.9736 3.94694 61.4629 4.29688C61.9552 4.64371 62.2479 5.19649 62.3408 5.9552L60.2102 6.07907C60.1524 5.74978 60.0321 5.5103 59.8494 5.36062C59.6698 5.21094 59.42 5.1361 59.1 5.1361C58.8368 5.1361 58.6386 5.19288 58.5054 5.30642C58.3712 5.41688 58.3041 5.5521 58.3041 5.7121C58.3041 5.82875 58.3589 5.93352 58.4683 6.02642C58.5746 6.12346 58.8275 6.21378 59.227 6.29739C60.2159 6.51004 60.9235 6.7263 61.3498 6.94617C61.7782 7.16294 62.0894 7.43288 62.2835 7.75597C62.4796 8.07907 62.5777 8.44036 62.5777 8.83984C62.5777 9.30952 62.4481 9.74256 62.189 10.1389C61.9289 10.5353 61.5656 10.8367 61.099 11.0432C60.6345 11.2455 60.0481 11.3467 59.34 11.3467C58.0951 11.3467 57.2327 11.1067 56.7527 10.6267C56.2737 10.1477 56.0022 9.53868 55.9382 8.79959L55.949 8.78875Z" fill="#225E63"/>
</g>
<defs>
<clipPath id="clip0">
<rect width="61.9355" height="24" fill="white" transform="translate(0.755859)"/>
</clipPath>
</defs>
</svg>
