<svg width="72" height="24" viewBox="0 0 72 24" fill="none" xmlns="http://www.w3.org/2000/svg">
<g clip-path="url(#clip0)">
<path d="M16.0372 9.49377H13.4508V7.52061C13.4508 6.21062 12.9304 4.95428 12.0041 4.02798C11.0778 3.10167 9.8215 2.58128 8.51151 2.58128C7.20152 2.58128 5.94518 3.10167 5.01888 4.02798C4.09258 4.95428 3.57218 6.21062 3.57218 7.52061V9.49377H0.992188V7.52061C0.992188 5.52602 1.78453 3.61312 3.19492 2.20273C4.60531 0.792347 6.5182 0 8.51279 0C10.5074 0 12.4203 0.792347 13.8307 2.20273C15.2411 3.61312 16.0334 5.52602 16.0334 7.52061L16.0372 9.49377Z" fill="#D5D5D9"/>
<path d="M0.424656 9.44885H16.6C16.6562 9.44885 16.7118 9.46 16.7637 9.48166C16.8155 9.50332 16.8626 9.53506 16.9021 9.57504C16.9416 9.61502 16.9728 9.66244 16.9938 9.71455C17.0148 9.76667 17.0253 9.82244 17.0246 9.87864V19.9061C17.0246 20.4441 16.9187 20.9768 16.7128 21.4738C16.507 21.9708 16.2052 22.4223 15.8248 22.8027C15.4444 23.1831 14.9929 23.4849 14.4958 23.6907C13.9988 23.8966 13.4662 24.0026 12.9282 24.0026H4.09644C3.55816 24.0026 3.02516 23.8965 2.52791 23.6904C2.03066 23.4843 1.5789 23.1822 1.19846 22.8014C0.818019 22.4206 0.516358 21.9685 0.310719 21.4711C0.10508 20.9736 -0.000503931 20.4405 1.80826e-06 19.9023V9.87864C1.80826e-06 9.76601 0.044742 9.658 0.12438 9.57836C0.204018 9.49872 0.31203 9.45398 0.424656 9.45398V9.44885Z" fill="#8EBD00"/>
<g style="mix-blend-mode:multiply" opacity="0.1">
<path d="M17.024 9.44885H8.51172V23.9987H17.024V9.44885Z" fill="#134200"/>
</g>
<path d="M7.75546 19.6162L3.75781 15.8687L5.46284 14.2714L7.75546 16.4204L12.3625 12.1007L14.0663 13.6993L7.75546 19.6162Z" fill="white"/>
<path d="M23.9495 9.71822C23.6422 9.60349 23.3445 9.46449 23.0592 9.30255C22.8077 9.16003 22.5811 8.97762 22.3882 8.76243C22.1969 8.54228 22.0505 8.2869 21.9571 8.01063C21.85 7.671 21.8001 7.3159 21.8096 6.9599C21.8006 6.5083 21.8881 6.05998 22.0662 5.64488C22.2294 5.27451 22.4767 4.94726 22.7885 4.68909C23.118 4.42145 23.498 4.22293 23.9059 4.10535C24.385 3.96788 24.8816 3.90132 25.38 3.90778C25.848 3.90359 26.3152 3.94657 26.7746 4.03607C27.2376 4.13419 27.6936 4.26277 28.1396 4.42095C28.0779 4.99902 27.9201 5.56273 27.6726 6.08878L27.2275 5.9143C27.0705 5.85354 26.9093 5.80465 26.7451 5.76804C26.5549 5.72613 26.3626 5.69444 26.169 5.67311C25.9266 5.64752 25.6828 5.63553 25.439 5.63718C25.27 5.63726 25.1013 5.65185 24.9348 5.6808C24.7735 5.70691 24.6181 5.76119 24.4755 5.84117C24.3354 5.92384 24.2194 6.04199 24.1394 6.18372C24.0459 6.36632 24.0016 6.5702 24.0111 6.77515C24.005 6.94402 24.0402 7.11182 24.1138 7.26395C24.1808 7.39469 24.2753 7.50936 24.3909 7.60009C24.5109 7.69208 24.6425 7.76798 24.7822 7.82588C24.9284 7.88875 25.0734 7.95418 25.2197 8.00806L26.0959 8.34419C26.4654 8.49045 26.8011 8.64098 27.103 8.79579C27.3917 8.94121 27.6523 9.13668 27.8728 9.37311C28.0868 9.61624 28.25 9.89979 28.3526 10.207C28.4815 10.5974 28.5427 11.0071 28.5335 11.4181C28.5392 11.8845 28.4469 12.3469 28.2628 12.7755C28.0858 13.1803 27.819 13.5396 27.4828 13.8262C27.1109 14.1353 26.682 14.3685 26.2203 14.5126C25.6599 14.6843 25.0757 14.7657 24.4897 14.7538C24.1689 14.7538 23.8815 14.7448 23.6288 14.7243C23.3864 14.7068 23.1452 14.6751 22.9065 14.6293C22.6775 14.5859 22.4509 14.5302 22.2278 14.4625C22.0037 14.3941 21.7702 14.3112 21.5273 14.2137C21.5593 13.9159 21.6129 13.6209 21.6877 13.331C21.7655 13.0239 21.8579 12.7152 21.9648 12.4047C22.3394 12.5587 22.7255 12.6831 23.1195 12.7768C23.4983 12.8627 23.8856 12.9057 24.2741 12.9051C24.8874 12.9051 25.3689 12.7909 25.7187 12.5625C26.0685 12.3341 26.2439 11.9865 26.2447 11.5195C26.25 11.317 26.206 11.1162 26.1164 10.9345C26.0365 10.7833 25.9275 10.6495 25.7957 10.5406C25.6598 10.4316 25.5101 10.341 25.3505 10.2712C25.1846 10.1985 25.0135 10.1279 24.8373 10.0595L23.9495 9.71822Z" fill="#262626"/>
<path d="M30.0664 4.08484H36.0218C36.0799 4.37806 36.1091 4.67628 36.1091 4.9752C36.1101 5.28351 36.0808 5.59118 36.0218 5.89379H32.2025V8.17101H35.2392C35.2959 8.46963 35.3251 8.77282 35.3265 9.07677C35.3265 9.38503 35.2973 9.69261 35.2392 9.99535H32.2025V12.7691H36.1296C36.1877 13.0623 36.2169 13.3605 36.2168 13.6594C36.2177 13.9682 36.1885 14.2762 36.1296 14.5793H30.0664V4.08484Z" fill="#262626"/>
<path d="M44.7496 12.5946C44.8758 12.8658 44.9809 13.1463 45.0639 13.4337C45.1461 13.7183 45.207 14.0086 45.2461 14.3022C44.8033 14.4697 44.3446 14.5918 43.8772 14.6666C43.4444 14.7265 43.008 14.7556 42.5711 14.7538C41.8243 14.7706 41.082 14.6339 40.3901 14.3522C39.7889 14.1011 39.2524 13.7168 38.8211 13.2284C38.3874 12.7293 38.0619 12.1456 37.8653 11.5144C37.6452 10.8156 37.5365 10.0865 37.5433 9.3539C37.5402 8.61674 37.6572 7.884 37.8897 7.18444C38.096 6.54949 38.4261 5.96171 38.8608 5.45504C39.29 4.96407 39.8234 4.57526 40.4222 4.31707C41.0888 4.03428 41.8074 3.89485 42.5314 3.90781C42.9635 3.90565 43.3953 3.93481 43.8233 3.99505C44.2617 4.067 44.6901 4.19015 45.0998 4.36197C45.0802 4.6529 45.0215 4.93987 44.9253 5.21513C44.8278 5.49395 44.7205 5.77406 44.6033 6.05545C44.3082 5.95072 44.0059 5.86754 43.6988 5.80656C43.3903 5.75406 43.0777 5.72958 42.7648 5.73344C41.8309 5.73344 41.1133 6.03749 40.6121 6.64561C40.1109 7.25372 39.8603 8.15649 39.8603 9.3539C39.8603 11.7273 40.8674 12.9145 42.8816 12.9153C43.1992 12.9187 43.5164 12.8942 43.8297 12.8422C44.1422 12.7832 44.4497 12.7005 44.7496 12.5946Z" fill="#262626"/>
<path d="M46.7793 4.08485C46.9578 4.05616 47.1376 4.03647 47.3181 4.02583C47.4939 4.01685 47.6735 4.01172 47.8583 4.01172C48.043 4.01172 48.1944 4.01172 48.3714 4.02583C48.5485 4.03994 48.7255 4.05534 48.9115 4.08485V9.52837C48.9077 10.0376 48.9296 10.5467 48.977 11.0538C49.0047 11.4164 49.0937 11.7716 49.24 12.1045C49.3534 12.3636 49.5479 12.5788 49.7942 12.7178C50.0813 12.8608 50.4 12.9287 50.7205 12.9153C51.039 12.9294 51.3557 12.8614 51.6404 12.7178C51.8833 12.5765 52.0751 12.3618 52.1882 12.1045C52.3317 11.771 52.4184 11.4159 52.4448 11.0538C52.4933 10.5468 52.5156 10.0377 52.5115 9.52837V4.08485C52.7052 4.05534 52.8964 4.03609 53.0657 4.02583C53.2351 4.01557 53.4108 4.01172 53.5789 4.01172C53.7469 4.01172 53.9317 4.01172 54.1113 4.02583C54.2948 4.03618 54.4776 4.05588 54.6591 4.08485V9.98638C54.665 10.6388 54.6065 11.2903 54.4846 11.9313C54.3877 12.4743 54.1736 12.9896 53.8573 13.4413C53.547 13.8669 53.129 14.2022 52.6462 14.4125C52.1407 14.6409 51.4992 14.7551 50.7218 14.7551C49.9443 14.7551 49.3028 14.6409 48.7974 14.4125C48.314 14.2025 47.8954 13.8672 47.585 13.4413C47.2687 12.9894 47.0542 12.4742 46.9563 11.9313C46.8349 11.289 46.7764 10.6363 46.7819 9.98253L46.7793 4.08485Z" fill="#262626"/>
<path d="M56.7323 4.08489C57.16 4.03614 57.5615 3.99337 57.937 3.95659C58.3116 3.92324 58.7273 3.90528 59.1853 3.90528C59.7164 3.90494 60.2464 3.9539 60.7684 4.05153C61.2654 4.13829 61.7431 4.31201 62.1797 4.56471C62.5964 4.81083 62.9452 5.15697 63.1945 5.57182C63.4511 5.99519 63.5794 6.53274 63.5794 7.18448C63.5851 7.53217 63.5357 7.87856 63.4331 8.21083C63.3459 8.48725 63.2207 8.7502 63.0611 8.99214C62.9213 9.20267 62.7572 9.39602 62.5723 9.56818C62.4186 9.71111 62.2525 9.83992 62.0758 9.95306L61.8282 10.1134L64.3825 14.5498C64.1875 14.5691 63.9835 14.5896 63.7692 14.6089C63.555 14.6281 63.3356 14.6384 63.1124 14.6384C62.7458 14.6386 62.3798 14.609 62.018 14.5498L59.2725 9.68878L59.6228 9.5143C59.7588 9.4463 59.9243 9.35906 60.1193 9.25771C60.322 9.14411 60.5114 9.00812 60.6838 8.8523C60.8692 8.68552 61.0246 8.48805 61.1431 8.26856C61.2727 8.01806 61.3354 7.73833 61.3252 7.45646C61.3252 6.84321 61.1499 6.3929 60.7992 6.10552C60.4117 5.80652 59.9309 5.65428 59.4419 5.67574C59.2464 5.67416 59.0512 5.68875 58.8581 5.71936V14.5794C58.6837 14.5986 58.5079 14.6153 58.3334 14.6294C58.1589 14.6435 57.987 14.6525 57.8202 14.6525C57.6535 14.6525 57.479 14.6525 57.2942 14.6371C57.1095 14.6217 56.9196 14.6076 56.7246 14.5794L56.7323 4.08489Z" fill="#262626"/>
<path d="M65.5488 4.08484H71.5043C71.5624 4.37806 71.5916 4.67628 71.5915 4.9752C71.5925 5.28351 71.5633 5.59118 71.5043 5.89379H67.6798V8.17101H70.7152C70.773 8.4695 70.8026 8.77274 70.8038 9.07677C70.804 9.3851 70.7743 9.69274 70.7152 9.99535H67.6798V12.7691H71.6056C71.6643 13.0622 71.6936 13.3605 71.6928 13.6594C71.6944 13.9682 71.6652 14.2763 71.6056 14.5793H65.5488V4.08484Z" fill="#262626"/>
<path d="M22.5551 19.9729C22.4147 19.9204 22.2787 19.8569 22.1484 19.783C22.0332 19.718 21.9296 19.6343 21.8417 19.5354C21.7542 19.4347 21.687 19.318 21.6442 19.1916C21.5948 19.0366 21.5713 18.8744 21.5749 18.7118C21.5706 18.5052 21.6104 18.3001 21.6916 18.1101C21.7659 17.9409 21.8789 17.7915 22.0214 17.6739C22.1727 17.551 22.3472 17.4598 22.5345 17.4057C22.7536 17.3437 22.9804 17.3135 23.2081 17.3159C23.4234 17.3146 23.6383 17.3348 23.8495 17.3762C24.0615 17.4198 24.2702 17.4777 24.4743 17.5494C24.4458 17.8132 24.3734 18.0703 24.2601 18.3102L24.0561 18.2307C23.9847 18.2031 23.9114 18.1808 23.8367 18.164C23.7495 18.1447 23.6612 18.1302 23.5724 18.1203C23.4616 18.109 23.3503 18.1034 23.2389 18.1037C23.1619 18.1035 23.085 18.1104 23.0092 18.1242C22.9352 18.1355 22.8639 18.1602 22.7988 18.1973C22.7345 18.2349 22.6814 18.2889 22.6449 18.3538C22.6015 18.4373 22.5807 18.5306 22.5846 18.6245C22.5813 18.6967 22.5953 18.7685 22.6254 18.8341C22.6555 18.8997 22.7009 18.9572 22.7578 19.0017C22.8131 19.0451 22.8739 19.0809 22.9387 19.1082C23.0054 19.1377 23.067 19.1647 23.1388 19.1916L23.5391 19.3455C23.7084 19.4123 23.8624 19.4815 23.9997 19.5521C24.1314 19.6184 24.25 19.7079 24.3499 19.8164C24.4501 19.9281 24.5265 20.0591 24.5744 20.2013C24.6315 20.3794 24.6584 20.5659 24.654 20.7529C24.6551 20.9662 24.6113 21.1773 24.5257 21.3726C24.4448 21.5583 24.3223 21.7229 24.1677 21.8537C23.9978 21.9954 23.8016 22.1022 23.5904 22.168C23.3347 22.2475 23.0679 22.2856 22.8001 22.2809C22.6526 22.2809 22.5217 22.2809 22.4062 22.2681C22.2952 22.2593 22.1847 22.2447 22.0752 22.2245C21.9713 22.2039 21.8674 22.1783 21.7648 22.1475C21.6621 22.1167 21.5556 22.0782 21.4453 22.0333C21.4595 21.8974 21.4839 21.7627 21.5184 21.6305C21.5544 21.4893 21.5967 21.3482 21.6467 21.2058C21.8175 21.277 21.9939 21.3341 22.174 21.3764C22.3495 21.4127 22.5286 21.4291 22.7077 21.4252C22.9385 21.438 23.168 21.3836 23.3684 21.2687C23.447 21.2174 23.5106 21.1462 23.5528 21.0624C23.5949 20.9786 23.6141 20.8851 23.6084 20.7914C23.6114 20.6992 23.592 20.6077 23.5519 20.5246C23.5151 20.4555 23.4655 20.3941 23.4057 20.3437C23.3437 20.2919 23.2751 20.2488 23.2017 20.2154C23.126 20.182 23.0477 20.15 22.9682 20.1192L22.5551 19.9729Z" fill="#BABABD"/>
<path d="M26.0598 19.9728C25.9212 19.9199 25.787 19.8565 25.6582 19.7829C25.5432 19.7175 25.4397 19.6339 25.3516 19.5353C25.264 19.4349 25.1972 19.318 25.1553 19.1915C25.1048 19.0367 25.0809 18.8744 25.0847 18.7117C25.0805 18.5051 25.1203 18.3 25.2015 18.11C25.2767 17.941 25.39 17.7917 25.5325 17.6738C25.6836 17.5505 25.8582 17.4593 26.0456 17.4056C26.2651 17.3435 26.4924 17.3133 26.7205 17.3158C26.9358 17.3146 27.1506 17.3348 27.3619 17.3761C27.5734 17.4197 27.7818 17.4776 27.9855 17.5493C27.9573 17.813 27.8854 18.0701 27.7725 18.3101L27.5685 18.2306C27.4967 18.203 27.4229 18.1807 27.3478 18.1638C27.261 18.1446 27.1732 18.1301 27.0848 18.1202C26.9736 18.1089 26.8618 18.1033 26.75 18.1036C26.673 18.1035 26.5961 18.1104 26.5203 18.1241C26.4464 18.1355 26.3751 18.1603 26.3099 18.1972C26.2459 18.2352 26.1929 18.2891 26.156 18.3537C26.113 18.4373 26.0927 18.5306 26.097 18.6244C26.0945 18.7014 26.1103 18.7779 26.1431 18.8477C26.1741 18.9078 26.2179 18.9604 26.2714 19.0016C26.3261 19.0453 26.3865 19.0811 26.451 19.1081C26.5178 19.1376 26.5793 19.1645 26.6512 19.1915L27.0527 19.3454C27.2208 19.4122 27.3748 19.4814 27.5133 19.552C27.6446 19.6189 27.7632 19.7084 27.8636 19.8163C27.9629 19.9284 28.0388 20.0593 28.0868 20.2012C28.145 20.3791 28.1723 20.5657 28.1676 20.7528C28.1687 20.9661 28.125 21.1772 28.0393 21.3725C27.9585 21.5578 27.8365 21.7224 27.6827 21.8536C27.5124 21.9948 27.3163 22.1015 27.1054 22.1679C26.8492 22.2474 26.582 22.2855 26.3138 22.2808C26.1675 22.2808 26.0367 22.2808 25.9199 22.268C25.8093 22.2593 25.6993 22.2447 25.5902 22.2244C25.485 22.2038 25.3824 22.1782 25.2797 22.1474C25.1771 22.1166 25.0706 22.0781 24.959 22.0332C24.9744 21.8974 24.9988 21.7629 25.0321 21.6304C25.068 21.4892 25.1104 21.3481 25.1604 21.2057C25.3313 21.2766 25.5077 21.3336 25.6877 21.3763C25.8608 21.4146 26.0377 21.4335 26.215 21.4328C26.4457 21.4457 26.6753 21.3913 26.8757 21.2763C26.9544 21.2251 27.0182 21.1539 27.0606 21.0701C27.1029 20.9863 27.1224 20.8928 27.1169 20.799C27.1202 20.7066 27.1003 20.6149 27.0592 20.5322C27.0232 20.4625 26.9735 20.401 26.9129 20.3513C26.851 20.2995 26.7824 20.2564 26.7089 20.223C26.6332 20.1896 26.5562 20.1575 26.4754 20.1268L26.0598 19.9728Z" fill="#BABABD"/>
<path d="M28.8574 17.3966C29.0139 17.3702 29.1722 17.3564 29.3308 17.3556C29.4942 17.3564 29.6572 17.3701 29.8183 17.3966V21.3545H31.4862C31.4998 21.4261 31.5088 21.4986 31.5131 21.5713C31.5131 21.6406 31.5131 21.706 31.5131 21.7689C31.5131 21.8318 31.5131 21.91 31.5131 21.978C31.5088 22.0512 31.4998 22.1241 31.4862 22.1961H28.8574V17.3966Z" fill="#BABABD"/>
<path d="M33.6133 17.3967H36.337C36.3637 17.5306 36.377 17.6669 36.3767 17.8034C36.3775 17.9447 36.3642 18.0856 36.337 18.2242H34.5909V19.2647H35.979C36.0051 19.4013 36.0184 19.54 36.0188 19.6791C36.0191 19.8203 36.0058 19.9612 35.979 20.0999H34.5909V21.3674H36.387C36.4143 21.5017 36.428 21.6384 36.4281 21.7754C36.4283 21.9167 36.4146 22.0576 36.387 22.1962H33.6133V17.3967Z" fill="#BABABD"/>
<path d="M37.1602 17.3966C37.2898 17.3703 37.4217 17.3566 37.554 17.3556C37.6927 17.3563 37.831 17.3701 37.9671 17.3966L39.8236 20.4539V17.3966C39.9757 17.3702 40.1297 17.3564 40.2841 17.3556C40.4186 17.3555 40.5528 17.3693 40.6844 17.3966V22.1949C40.5575 22.2193 40.4287 22.2326 40.2995 22.2346C40.1631 22.2331 40.027 22.2198 39.8928 22.1949L38.0236 19.144V22.1949C37.8805 22.221 37.7354 22.2343 37.5899 22.2346C37.4466 22.2346 37.3036 22.2213 37.1627 22.1949L37.1602 17.3966Z" fill="#BABABD"/>
<path d="M44.7909 21.2879C44.8484 21.4122 44.896 21.5409 44.9333 21.6728C44.9716 21.803 44.9999 21.936 45.018 22.0705C44.8159 22.1471 44.6065 22.2029 44.3932 22.2373C44.1951 22.2649 43.9953 22.2782 43.7953 22.277C43.4549 22.2839 43.1166 22.2215 42.801 22.0936C42.5263 21.9789 42.2811 21.8034 42.0839 21.5804C41.8853 21.3523 41.7363 21.0853 41.6464 20.7965C41.5464 20.4769 41.497 20.1436 41.5001 19.8087C41.4973 19.472 41.5489 19.1371 41.6528 18.8169C41.7477 18.527 41.8985 18.2585 42.0967 18.0266C42.2931 17.8019 42.5372 17.6239 42.8113 17.5058C43.1163 17.3766 43.4449 17.3128 43.7761 17.3185C43.9735 17.3178 44.1707 17.3311 44.3662 17.3582C44.5672 17.3911 44.7635 17.4475 44.9512 17.5263C44.9418 17.6577 44.9146 17.7871 44.8704 17.9112C44.8255 18.0395 44.7768 18.1678 44.7242 18.2961C44.5891 18.248 44.4506 18.2103 44.3098 18.1832C44.1687 18.1588 44.0257 18.1477 43.8826 18.1498C43.4549 18.1498 43.1269 18.2888 42.8985 18.5668C42.6702 18.8447 42.5556 19.2574 42.5547 19.8048C42.5547 20.8902 43.0153 21.4329 43.9364 21.4329C44.0817 21.4348 44.2268 21.4237 44.3701 21.3995C44.513 21.3733 44.6537 21.336 44.7909 21.2879Z" fill="#BABABD"/>
<path d="M45.791 17.3967C45.9873 17.3737 46.1759 17.3557 46.3414 17.339C46.5069 17.3223 46.7032 17.3159 46.9123 17.3159C47.1554 17.3162 47.3981 17.3385 47.6372 17.3826C47.8631 17.424 48.0802 17.5043 48.2786 17.62C48.469 17.7325 48.6282 17.8908 48.7418 18.0806C48.8676 18.3054 48.9289 18.5607 48.9188 18.8182C48.9217 18.9777 48.8992 19.1367 48.8521 19.2891C48.7761 19.5264 48.6405 19.7401 48.4582 19.91C48.3884 19.9759 48.3124 20.0347 48.2312 20.0858L48.1183 20.1602L49.2857 22.1885L49.0061 22.2155C48.9085 22.2245 48.8072 22.2296 48.7058 22.2296C48.5382 22.2295 48.3709 22.2158 48.2055 22.1885L46.9559 19.9601L47.1163 19.8792C47.1792 19.8484 47.2548 19.8087 47.3434 19.7586C47.4355 19.7073 47.5216 19.6458 47.6 19.5752C47.6845 19.4989 47.7552 19.4086 47.8091 19.3083C47.8865 19.1475 47.9133 18.9671 47.8861 18.7907C47.8588 18.6143 47.7787 18.4504 47.6564 18.3205C47.4789 18.1841 47.2591 18.1146 47.0355 18.1242C46.9461 18.1235 46.8569 18.13 46.7686 18.1434V22.1949C46.6878 22.2026 46.6082 22.2116 46.5274 22.218C46.4466 22.2245 46.3696 22.2283 46.2939 22.2283C46.2182 22.2283 46.1387 22.2283 46.054 22.2206C45.9693 22.2129 45.8821 22.2078 45.7974 22.1949L45.791 17.3967Z" fill="#BABABD"/>
<path d="M50.783 20.4796L49.2871 17.4006C49.4728 17.3735 49.6601 17.3598 49.8478 17.3595C50.0196 17.3595 50.1912 17.3732 50.3609 17.4006L51.309 19.5816L52.243 17.4006C52.4106 17.3731 52.58 17.3594 52.7498 17.3595C52.9216 17.3607 53.0931 17.3744 53.263 17.4006L51.7683 20.4796V22.2026C51.6828 22.2154 51.5973 22.2244 51.5117 22.2295C51.4322 22.2295 51.3514 22.2295 51.2718 22.2295C51.1923 22.2295 51.1166 22.2295 51.0345 22.2295C50.9524 22.2295 50.869 22.2154 50.7779 22.2026L50.783 20.4796Z" fill="#BABABD"/>
<path d="M53.793 17.3762C53.9982 17.3583 54.2048 17.3441 54.4139 17.3326C54.623 17.3211 54.8347 17.3159 55.049 17.3159C55.2759 17.3168 55.5023 17.3392 55.7251 17.3826C55.9466 17.4241 56.1577 17.5091 56.346 17.6328C56.5372 17.7633 56.6925 17.9398 56.7976 18.146C56.923 18.4105 56.9825 18.7015 56.9708 18.994C56.983 19.2853 56.9235 19.5752 56.7976 19.8382C56.6925 20.0432 56.5388 20.2194 56.3499 20.3514C56.1661 20.478 55.9582 20.5653 55.7392 20.6079C55.5204 20.652 55.2978 20.6744 55.0746 20.6747C55.0169 20.6747 54.963 20.6747 54.9117 20.6747C54.8604 20.6747 54.8116 20.6747 54.768 20.6657V22.2052C54.686 22.218 54.6033 22.2266 54.5204 22.2309C54.4409 22.2309 54.3626 22.2386 54.2869 22.2386C54.2112 22.2386 54.1381 22.2386 54.0534 22.2309C53.9687 22.2232 53.8828 22.218 53.7968 22.2052L53.793 17.3762ZM54.768 19.8459C54.8176 19.8547 54.8678 19.8594 54.9181 19.86H55.0887C55.1992 19.8596 55.3092 19.8449 55.4159 19.8164C55.5193 19.7884 55.6158 19.7395 55.6994 19.6727C55.7848 19.6014 55.8521 19.5108 55.8957 19.4084C55.9479 19.2807 55.9729 19.1435 55.9688 19.0056C55.9729 18.8626 55.948 18.7204 55.8957 18.5873C55.8545 18.4845 55.7896 18.3929 55.7062 18.3199C55.6228 18.247 55.5233 18.1949 55.4159 18.1678C55.3093 18.1387 55.1993 18.124 55.0887 18.1242H54.9515L54.768 18.1408V19.8459Z" fill="#BABABD"/>
<path d="M58.6203 18.2242H57.4258C57.3981 18.0857 57.3844 17.9447 57.3848 17.8034C57.3849 17.6668 57.3986 17.5306 57.4258 17.3967H60.7961C60.8229 17.5306 60.8362 17.6669 60.8359 17.8034C60.8367 17.9447 60.8234 18.0856 60.7961 18.2242H59.6017V22.2013C59.5209 22.209 59.4413 22.218 59.3605 22.2244C59.2797 22.2309 59.2027 22.2347 59.127 22.2347C59.0513 22.2347 58.9705 22.2347 58.8833 22.227C58.796 22.2193 58.7088 22.2142 58.6203 22.2013V18.2242Z" fill="#BABABD"/>
<path d="M61.4688 17.3966C61.6299 17.3698 61.7929 17.3561 61.9563 17.3556C62.1217 17.3562 62.2869 17.37 62.4502 17.3966V22.1949C62.1252 22.2479 61.7938 22.2479 61.4688 22.1949V17.3966Z" fill="#BABABD"/>
<path d="M65.3407 22.2757C65.0193 22.2836 64.7002 22.2196 64.4068 22.0884C64.155 21.971 63.935 21.7951 63.7653 21.5752C63.5898 21.3419 63.4616 21.0765 63.3881 20.7939C63.3016 20.4731 63.2584 20.1422 63.2598 19.8099C63.2587 19.4751 63.3019 19.1417 63.3881 18.8182C63.4611 18.5327 63.5892 18.2642 63.7653 18.0279C63.9337 17.8048 64.1538 17.626 64.4068 17.507C64.7026 17.3834 65.0201 17.3197 65.3407 17.3197C65.6614 17.3197 65.9789 17.3834 66.2747 17.507C66.5276 17.626 66.7478 17.8048 66.9162 18.0279C67.0923 18.2642 67.2204 18.5327 67.2934 18.8182C67.3796 19.1417 67.4228 19.4751 67.4217 19.8099C67.4231 20.1422 67.3799 20.4731 67.2934 20.7939C67.2198 21.0765 67.0917 21.3419 66.9162 21.5752C66.7465 21.7951 66.5265 21.971 66.2747 22.0884C65.9812 22.2196 65.6621 22.2836 65.3407 22.2757ZM65.3407 21.461C66.031 21.461 66.3757 20.9094 66.3748 19.806C66.3748 19.2544 66.2893 18.8404 66.1182 18.5642C66.0392 18.4304 65.9248 18.3211 65.7876 18.2482C65.6504 18.1753 65.4958 18.1417 65.3407 18.1511C64.6428 18.1511 64.2934 18.7027 64.2926 19.806C64.2917 20.9094 64.6411 21.461 65.3407 21.461Z" fill="#BABABD"/>
<path d="M68.2324 17.3966C68.3621 17.3703 68.494 17.3566 68.6263 17.3556C68.765 17.3563 68.9033 17.3701 69.0394 17.3966L70.8958 20.4539V17.3966C71.0479 17.3702 71.202 17.3564 71.3564 17.3556C71.4909 17.3555 71.625 17.3693 71.7567 17.3966V22.1949C71.6298 22.2193 71.501 22.2326 71.3718 22.2346C71.2353 22.2331 71.0993 22.2198 70.9651 22.1949L69.0958 19.144V22.1949C68.9528 22.221 68.8076 22.2343 68.6622 22.2346C68.5189 22.2346 68.3759 22.2213 68.235 22.1949L68.2324 17.3966Z" fill="#BABABD"/>
</g>
<defs>
<clipPath id="clip0">
<rect width="71.7562" height="24" fill="white"/>
</clipPath>
</defs>
</svg>
