<?xml version="1.0" encoding="UTF-8" standalone="no"?>
<!-- Created with Inkscape (http://www.inkscape.org/) -->

<svg
   xmlns:dc="http://purl.org/dc/elements/1.1/"
   xmlns:cc="http://creativecommons.org/ns#"
   xmlns:rdf="http://www.w3.org/1999/02/22-rdf-syntax-ns#"
   xmlns:svg="http://www.w3.org/2000/svg"
   xmlns="http://www.w3.org/2000/svg"
   xmlns:sodipodi="http://sodipodi.sourceforge.net/DTD/sodipodi-0.dtd"
   xmlns:inkscape="http://www.inkscape.org/namespaces/inkscape"
   width="139.99998"
   height="32.86599"
   viewBox="0 0 37.041664 8.6957929"
   version="1.1"
   id="svg5586"
   inkscape:version="0.92.0 r15299"
   sodipodi:docname="web money.svg">
  <defs
     id="defs5580" />
  <sodipodi:namedview
     id="base"
     pagecolor="#ffffff"
     bordercolor="#666666"
     borderopacity="1.0"
     inkscape:pageopacity="0.0"
     inkscape:pageshadow="2"
     inkscape:zoom="5.7697842"
     inkscape:cx="69.499984"
     inkscape:cy="15.203994"
     inkscape:document-units="mm"
     inkscape:current-layer="layer1"
     showgrid="false"
     fit-margin-top="0"
     fit-margin-left="0"
     fit-margin-right="0"
     fit-margin-bottom="0"
     units="px"
     inkscape:window-width="1280"
     inkscape:window-height="744"
     inkscape:window-x="-4"
     inkscape:window-y="-4"
     inkscape:window-maximized="1" />
  <metadata
     id="metadata5583">
    <rdf:RDF>
      <cc:Work
         rdf:about="">
        <dc:format>image/svg+xml</dc:format>
        <dc:type
           rdf:resource="http://purl.org/dc/dcmitype/StillImage" />
        <dc:title></dc:title>
      </cc:Work>
    </rdf:RDF>
  </metadata>
  <g
     inkscape:label="Layer 1"
     inkscape:groupmode="layer"
     id="layer1"
     transform="translate(-74.593605,-322.56503)">
    <path
       style="fill:#006cb4;fill-rule:nonzero;stroke-width:0.26458332"
       inkscape:connector-curvature="0"
       d="m 107.20191,322.69785 c 0.66807,0 1.3036,0.15293 1.87378,0.42651 0.0894,0.0402 0.17938,0.0886 0.26855,0.13705 l -0.39079,0.3466 -0.58632,-0.6043 -1.00991,0.88582 -0.59479,-0.63606 -1.85737,1.651 1.1893,1.29646 -0.46434,0.40217 1.17316,1.29646 -0.46434,0.40269 1.67851,1.84415 0.99325,-0.90223 0.86386,0.96679 c -0.17118,0.12885 -0.35851,0.25797 -0.56197,0.37041 -0.61913,0.34661 -1.33615,0.54716 -2.10212,0.54716 -2.35426,0 -4.26852,-1.89177 -4.26852,-4.21904 -0.008,-2.31114 1.90632,-4.21217 4.26032,-4.21217 z m -0.78211,3.95367 1.01864,-0.90223 0.91229,1.007 -1.01865,0.9017 -0.91228,-1.00674 z m 0.72496,1.73963 1.01071,-0.91016 0.92022,1.00674 -1.01865,0.90222 -0.91202,-0.9988 z m -1.44939,-3.45493 1.01785,-0.9017 0.91281,1.00648 -1.01864,0.90223 z m 1.86531,-0.48286 0.75724,-0.67654 0.68448,0.74877 -0.75803,0.68448 -0.68422,-0.75671 z m 1.35202,3.10012 0.75724,-0.67627 0.68448,0.7567 -0.75777,0.67681 -0.68421,-0.75724 z m 0.66781,1.52215 0.75777,-0.67654 0.68395,0.74877 -0.75751,0.68448 z m 0.30956,-3.47927 0.50536,-0.45059 0.45588,0.49927 -0.50483,0.45085 -0.45667,-0.49953 z m -0.65166,-1.48961 0.50535,-0.45878 0.45641,0.50747 -0.50536,0.45111 -0.45614,-0.49953 z m 1.29566,2.98001 0.50482,-0.45112 0.46408,0.49927 -0.51329,0.45085 -0.45587,-0.499 z m -2.27277,-1.11972 0.7575,-0.67628 0.68421,0.74878 -0.75723,0.67654 -0.68448,-0.74878 z m -31.300999,-0.36513 h -0.03836 l -0.721519,2.74003 H 75.61093 l -0.885031,-3.89255 h 0.611981 l 0.611717,2.90433 h 0.0381 l 0.709877,-2.90433 h 0.486304 l 0.759354,2.90433 h 0.03863 l 0.557213,-2.90433 h 0.639233 l -0.885296,3.89255 h -0.59002 m 2.251604,-1.65735 h 1.250685 c -0.02725,-0.57626 -0.306123,-0.80698 -0.601133,-0.80698 -0.333375,0 -0.590021,0.2585 -0.649817,0.80698 m 1.688042,1.0324 v 0.41752 c -0.246063,0.14287 -0.573617,0.25267 -0.967317,0.25267 -0.918104,0 -1.294341,-0.57123 -1.294341,-1.43854 0,-0.83476 0.420687,-1.43854 1.239837,-1.43854 0.682625,0 1.103312,0.4445 1.103312,1.33933 v 0.2032 h -1.78065 c 0,0.65881 0.267229,0.94985 0.830262,0.94985 0.295275,0 0.568325,-0.10478 0.868627,-0.28575 m 1.353079,0.23045 c 0.174625,0.0767 0.366184,0.0878 0.502709,0.0878 0.404812,0 0.709877,-0.25267 0.709877,-1.1422 0,-0.69718 -0.251354,-0.92208 -0.617009,-0.92208 -0.218545,0 -0.377031,0.0603 -0.595312,0.18098 v 1.7952 z m 0.0053,-2.20133 c 0.164042,-0.0878 0.442383,-0.20373 0.737658,-0.20373 0.677334,0 1.043517,0.47228 1.043517,1.3507 0,1.02658 -0.492125,1.52664 -1.283758,1.52664 -0.289719,0 -0.737659,-0.0937 -1.065477,-0.26987 v -3.8309 l 0.568325,-0.13759 v 1.56475 z m 4.240213,1.77006 h 0.02699 l 1.168665,-3.06917 h 0.677333 v 3.89282 h -0.590021 v -2.82205 h -0.04895 l -1.114425,2.82205 h -0.34925 l -1.114425,-2.7559 h -0.04948 v 2.7559 h -0.491596 v -3.89282 h 0.661459 m 5.507302,2.5019 c 0,-0.74083 -0.300038,-1.05383 -0.671248,-1.05383 -0.360363,0 -0.672042,0.31274 -0.672042,1.05383 0,0.75221 0.284163,1.05384 0.672042,1.05384 0.387614,0 0.671512,-0.30163 0.671512,-1.0541 m -1.916641,0 c 0,-0.96097 0.524404,-1.43854 1.245393,-1.43854 0.721519,0 1.245659,0.47731 1.245659,1.43827 0,0.93848 -0.496888,1.43854 -1.245394,1.43854 -0.748771,0 -1.245394,-0.50006 -1.245394,-1.43854 m 2.922588,-1.03161 c 0.246062,-0.14816 0.765175,-0.4064 1.392766,-0.4064 0.655638,0 0.901171,0.25771 0.901171,0.82286 v 1.98808 h -0.567796 v -1.86082 c 0,-0.43391 -0.21246,-0.51064 -0.491596,-0.51064 -0.218281,0 -0.497416,0.099 -0.66675,0.19764 v 2.17408 h -0.567795 v -2.40506 z m 3.496733,0.76809 h 1.250421 c -0.02646,-0.57626 -0.305594,-0.80698 -0.600604,-0.80698 -0.333375,0 -0.590021,0.2585 -0.650082,0.80698 m 1.687513,1.0324 v 0.41752 c -0.245534,0.14287 -0.573352,0.25267 -0.967052,0.25267 -0.916782,0 -1.293813,-0.57123 -1.293813,-1.43854 0,-0.83476 0.420159,-1.43854 1.239573,-1.43854 0.682625,0 1.103842,0.4445 1.103842,1.33933 v 0.2032 h -1.780646 c 0,0.65881 0.267229,0.94985 0.829733,0.94985 0.295011,0 0.568854,-0.10478 0.868363,-0.28575 m 2.351877,-2.20636 h 0.58473 l -0.989009,2.74373 c -0.273315,0.75776 -0.605896,1.15305 -1.234282,1.15305 v -0.44926 c 0.371475,0 0.600605,-0.29633 0.732103,-0.70326 l -1.048809,-2.74426 h 0.600604 l 0.699559,2.01983 h 0.03281 l 0.622304,-2.0201 z"
       id="path5590" />
  </g>
</svg>
