<?xml version="1.0" encoding="utf-8"?>
<svg version="1.1" id="Слой_1" xmlns="http://www.w3.org/2000/svg" xmlns:xlink="http://www.w3.org/1999/xlink" x="0px" y="0px"
	 viewBox="0 0 32 18.6" style="enable-background:new 0 0 32 18.6;" xml:space="preserve">
	<rect fill="#FFFFFF" width="32" height="18.6"/>
	<polygon fill="#BD0034" points="21.4,6.7 32,0.8 32,0 31.2,0 19.2,6.7"/>
	<polygon fill="#BD0034" points="20.9,12.3 32,18.5 32,17.2 23.1,12.3"/>
	<polygon fill="#BD0034" points="0,1.5 9.5,6.7 11.7,6.7 0,0.2"/>
	<polygon fill="#BD0034" points="11.2,12.3 0,18.6 0,18.6 2.1,18.6 13.4,12.3"/>
	<polygon fill="#1A237B" points="29.8,0 18.6,0 18.6,6.3"/>
	<polygon fill="#1A237B" points="13.7,0 2.5,0 13.7,6.3"/>
	<polygon fill="#1A237B" points="32,6.7 32,2.5 24.3,6.7"/>
	<polygon fill="#1A237B" points="32,16.5 32,12.3 24.3,12.3"/>
	<polygon fill="#1A237B" points="3.1,18.6 13.7,18.6 13.7,12.7"/>
	<polygon fill="#1A237B" points="18.6,18.6 29.2,18.6 18.6,12.7"/>
	<polygon fill="#1A237B" points="0,12.3 0,16.7 7.8,12.3"/>
	<polygon fill="#1A237B" points="0,6.7 7.8,6.7 0,2.3"/>
	<polygon fill="#BD0034" points="14.6,0 14.6,7.8 0,7.8 0,11.2 14.6,11.2 14.6,18.6 17.7,18.6 17.7,11.2 32,11.2 32,7.8 17.7,7.8 17.7,0"/>
</svg>
