<svg width="16" height="16" viewBox="0 0 16 16" fill="none" xmlns="http://www.w3.org/2000/svg">
<g clip-path="url(#clip0)">
<path d="M5.82938 8.82716C5.82938 8.62673 5.66681 8.46436 5.46622 8.46436H4.19891C3.99854 8.46436 3.83594 8.62673 3.83594 8.82716V10.0943C3.83594 10.295 3.99854 10.4574 4.19891 10.4574H5.46622C5.66681 10.4574 5.82938 10.295 5.82938 10.0943V8.82716Z" fill="#819EA6"/>
<path d="M8.99716 8.82716C8.99716 8.62673 8.83456 8.46436 8.63435 8.46436H7.36688C7.16651 8.46436 7.00391 8.62673 7.00391 8.82716V10.0943C7.00391 10.295 7.16651 10.4574 7.36688 10.4574H8.63435C8.83456 10.4574 8.99716 10.295 8.99716 10.0943V8.82716Z" fill="#819EA6"/>
<path d="M12.1653 8.82716C12.1653 8.62673 12.0027 8.46436 11.8024 8.46436H10.535C10.3344 8.46436 10.1719 8.62673 10.1719 8.82716V10.0943C10.1719 10.295 10.3344 10.4574 10.535 10.4574H11.8024C12.0027 10.4574 12.1653 10.295 12.1653 10.0943V8.82716Z" fill="#819EA6"/>
<path d="M5.82938 11.9946C5.82938 11.7938 5.66681 11.6316 5.46622 11.6316H4.19891C3.99854 11.6316 3.83594 11.7938 3.83594 11.9946V13.2615C3.83594 13.4621 3.99854 13.6245 4.19891 13.6245H5.46622C5.66681 13.6245 5.82938 13.462 5.82938 13.2615V11.9946Z" fill="#819EA6"/>
<path d="M8.99716 11.9946C8.99716 11.7938 8.83456 11.6316 8.63435 11.6316H7.36688C7.16651 11.6316 7.00391 11.7938 7.00391 11.9946V13.2615C7.00391 13.4621 7.16651 13.6245 7.36688 13.6245H8.63435C8.83456 13.6245 8.99716 13.462 8.99716 13.2615V11.9946Z" fill="#819EA6"/>
<path d="M12.1653 11.9946C12.1653 11.7938 12.0027 11.6316 11.8025 11.6316H10.535C10.3344 11.6316 10.1719 11.7938 10.1719 11.9946V13.2615C10.1719 13.4621 10.3344 13.6245 10.535 13.6245H11.8025C12.0027 13.6245 12.1653 13.462 12.1653 13.2615V11.9946Z" fill="#819EA6"/>
<path d="M14.4304 1.78161V3.71707C14.4304 4.59188 13.7208 5.29684 12.8461 5.29684H11.8466C10.9719 5.29684 10.2528 4.59188 10.2528 3.71707V1.77466H5.74797V3.71707C5.74797 4.59188 5.02891 5.29684 4.1543 5.29684H3.15464C2.28 5.29684 1.57035 4.59188 1.57035 3.71707V1.78161C0.805899 1.80465 0.177734 2.43721 0.177734 3.2147V14.5574C0.177734 15.3495 0.819764 16.0001 1.61188 16.0001H14.3889C15.1798 16.0001 15.823 15.3482 15.823 14.5574V3.2147C15.823 2.43721 15.1949 1.80465 14.4304 1.78161ZM13.9662 13.8511C13.9662 14.1934 13.6887 14.4711 13.3462 14.4711H2.62723C2.28478 14.4711 2.00723 14.1934 2.00723 13.8511V7.99216C2.00723 7.64971 2.28475 7.372 2.62723 7.372H13.3462C13.6886 7.372 13.9662 7.64971 13.9662 7.99216L13.9662 13.8511Z" fill="#819EA6"/>
<path d="M3.15079 4.25917H4.1394C4.43947 4.25917 4.68278 4.01622 4.68278 3.71615V0.543208C4.68278 0.243105 4.43947 0 4.1394 0H3.15079C2.85069 0 2.60742 0.243105 2.60742 0.543208V3.71615C2.60742 4.01622 2.85069 4.25917 3.15079 4.25917Z" fill="#819EA6"/>
<path d="M11.8344 4.25917H12.823C13.1228 4.25917 13.3661 4.01622 13.3661 3.71615V0.543208C13.3662 0.243105 13.1229 0 12.823 0H11.8344C11.5343 0 11.291 0.243105 11.291 0.543208V3.71615C11.291 4.01622 11.5343 4.25917 11.8344 4.25917Z" fill="#819EA6"/>
</g>
<defs>
<clipPath id="clip0">
<rect width="16" height="16" fill="white"/>
</clipPath>
</defs>
</svg>
