<svg version="1.1" xmlns="http://www.w3.org/2000/svg" viewBox="0 0 48 48">
<style type="text/css">
	.cl0{fill:#F7E5C6;}
	.cl1{fill:#FFF5E3;}
	.cl2{fill:none;stroke:#45413C;stroke-linecap:round;stroke-linejoin:round;stroke-miterlimit:10;}
	.cl3{opacity:0.15;fill:#45413C;enable-background:new    ;}
	.cl4{fill:#F0D5A8;}
	.cl5{fill:#FF6242;}
	.cl6{fill:#FF8A14;}
	.cl7{fill:#6DD627;}
	.cl8{fill:#FFE500;}
	.cl9{fill:#E04122;}
	.cl10{fill:#EB6D00;}
	.cl11{fill:#46B000;}
	.cl12{fill:#EBCB00;}
	.cl13{fill:#4ACFFF;}
	.cl14{fill:#80DDFF;}
	.cl15{fill:#DAEDF7;}
	.cl16{fill:#E8F4FA;}
</style>
<path class="cl0" d="M37.8,11.9c0,0-1.8-2-0.8-4.4c0.8-2.1,2.3-2.9,3.6-3.6c1.5-0.8,1.6-2.4,1.6-2.4
	s3.3,4.6,1.6,8.5c-1.6,3.7-4,2.8-4,2.8L37.8,11.9z"/>
<path class="cl1" d="M40.6,3.9c-1.3,0.7-2.8,1.5-3.6,3.6c0.8-0.3,2-0.5,3.7,0.1c1.6,0.6,2.5,1.6,3,2.6
	c0-0.1,0.1-0.1,0.1-0.2c1.7-3.9-1.6-8.5-1.6-8.5S42.1,3,40.6,3.9z"/>
<path class="cl2" d="M37.8,11.9c0,0-1.8-2-0.8-4.4c0.8-2.1,2.3-2.9,3.6-3.6c1.5-0.8,1.6-2.4,1.6-2.4
	s3.3,4.6,1.6,8.5c-1.6,3.7-4,2.8-4,2.8L37.8,11.9z"/>
<path class="cl2" d="M39.5,12.5c0,0,1.3-0.8,2.3-3.4"/>
<path class="cl2" d="M38.6,12.2c0,0-0.3-2,0.4-3.7"/>
<ellipse class="cl3" cx="24.2" cy="45.3" rx="11.5" ry="1.5"/>
<path class="cl4" d="M21.3,6.4c-9.7,0-17.5,4.7-17.5,13c0,0,0,0,0,0.1c0,2.9,3.2,4.6,5.7,3.2l3.1-1.7
	c1-0.6,2.1,0.6,1.5,1.5l-4.3,7c-1.1,1.7-0.4,4,1.4,4.9c2.5,1.2,5.5,2,8.6,2c9.7,0,17.5-6.7,17.5-15S30.9,6.4,21.3,6.4z M18.3,32.9
	c-1.7,0-3-1-3-2.2s1.3-2.2,3-2.2s3,1,3,2.2C21.3,31.9,19.9,32.9,18.3,32.9z"/>
<g>
	<path class="cl0" d="M21.3,9.4c9,0,15.2,5.9,15.9,13.4c0-0.5,0.1-0.9,0.1-1.4c0-8.3-6.3-15-16-15
		s-17.5,4.7-17.5,13c0,0,0,0,0,0.1c0,0.4,0.1,0.7,0.2,1.1C5,13.4,12.4,9.4,21.3,9.4z"/>
</g>
<path class="cl2" d="M21.3,6.4c-9.7,0-17.5,4.7-17.5,13c0,0,0,0,0,0.1c0,2.9,3.2,4.6,5.7,3.2l3.1-1.7
	c1-0.6,2.1,0.6,1.5,1.5l-4.3,7c-1.1,1.7-0.4,4,1.4,4.9c2.5,1.2,5.5,2,8.6,2c9.7,0,17.5-6.7,17.5-15S30.9,6.4,21.3,6.4z M18.3,32.9
	c-1.7,0-3-1-3-2.2s1.3-2.2,3-2.2s3,1,3,2.2C21.3,31.9,19.9,32.9,18.3,32.9z"/>
<ellipse class="cl5" cx="28.6" cy="27.1" rx="3.2" ry="2.2"/>
<ellipse class="cl6" cx="30" cy="17.1" rx="2.8" ry="2.3"/>
<ellipse class="cl7" cx="11.5" cy="14.1" rx="2.7" ry="2.2"/>
<ellipse class="cl8" cx="21.2" cy="11.6" rx="2.9" ry="2.2"/>
<path class="cl9" d="M28.6,26.2c1.4,0,2.6,0.7,3,1.6c0.1-0.2,0.2-0.4,0.2-0.7c0-1.2-1.4-2.2-3.1-2.2
	s-3.1,1-3.1,2.2c0,0.2,0.1,0.5,0.2,0.7C26,26.9,27.2,26.2,28.6,26.2z"/>
<path class="cl10" d="M30,16.2c1.2,0,2.3,0.7,2.6,1.6c0.1-0.2,0.1-0.4,0.1-0.7c0-1.3-1.2-2.3-2.8-2.3
	s-2.8,1-2.8,2.3c0,0.2,0.1,0.5,0.1,0.7C27.8,16.8,28.8,16.2,30,16.2z"/>
<path class="cl11" d="M11.5,13.2c1.2,0,2.2,0.7,2.6,1.6c0.1-0.2,0.1-0.4,0.1-0.7c0-1.2-1.2-2.2-2.7-2.2
	s-2.7,1-2.7,2.2c0,0.2,0.1,0.5,0.1,0.7C9.3,13.9,10.3,13.2,11.5,13.2z"/>
<path class="cl12" d="M21.2,10.7c1.3,0,2.4,0.7,2.8,1.6c0.1-0.2,0.2-0.4,0.2-0.7c0-1.2-1.3-2.2-2.9-2.2
	s-2.9,1-2.9,2.2c0,0.2,0.1,0.5,0.2,0.7C18.8,11.4,19.9,10.7,21.2,10.7z"/>
<ellipse class="cl2" cx="28.6" cy="27.1" rx="3.2" ry="2.2"/>
<ellipse class="cl2" cx="30" cy="17.1" rx="2.8" ry="2.3"/>
<ellipse class="cl2" cx="11.5" cy="14.1" rx="2.7" ry="2.2"/>
<ellipse class="cl2" cx="21.2" cy="11.6" rx="2.9" ry="2.2"/>
<path class="cl13" d="M28.9,44.6L28.9,44.6c-0.8-0.3-1.3-1.1-1.1-1.9l2.9-12.5c0.9-3.7,2.1-7.4,3.6-10.9l0.5-1.2
	c0.5-1,1.6-1.6,2.7-1.2l0,0c1.1,0.3,1.7,1.4,1.5,2.6l-0.2,1.3c-0.7,3.8-1.8,7.4-3.2,11l-4.7,11.9C30.6,44.4,29.7,44.8,28.9,44.6z"
	/>
<path class="cl14" d="M29.6,43.7l2.9-12.5c0.9-3.7,2.1-7.4,3.6-10.9l0.5-1.2c0.4-0.9,1.3-1.4,2.2-1.3
	c-0.3-0.4-0.7-0.8-1.2-1c-1.1-0.3-2.3,0.2-2.7,1.2l-0.5,1.2c-1.5,3.5-2.8,7.1-3.6,10.9l-2.9,12.5c-0.2,0.8,0.3,1.7,1.1,1.9
	c0.2,0.1,0.5,0.1,0.7,0C29.5,44.4,29.5,44,29.6,43.7z"/>
<path class="cl2" d="M28.9,44.6L28.9,44.6c-0.8-0.3-1.3-1.1-1.1-1.9l2.9-12.5c0.9-3.7,2.1-7.4,3.6-10.9l0.5-1.2
	c0.5-1,1.6-1.6,2.7-1.2l0,0c1.1,0.3,1.7,1.4,1.5,2.6l-0.2,1.3c-0.7,3.8-1.8,7.4-3.2,11l-4.7,11.9C30.6,44.4,29.7,44.8,28.9,44.6z"
	/>
<path class="cl15" d="M38.8,19.4c0.3,0.1,0.6-0.1,0.6-0.4c0.1-0.9,0.2-2.4,0.5-3.3c0.2-0.8,0.7-1.5,1-2.1
	c0.2-0.4-0.1-0.8-0.6-1l-2.5-0.8c-0.6-0.2-1.1,0.1-1.1,0.5c0,0.6-0.1,1.5-0.3,2.3c-0.3,0.9-1,2.3-1.5,3c-0.2,0.3,0,0.6,0.3,0.7
	L38.8,19.4z"/>
<path class="cl16" d="M36.4,18.3c0.4-0.7,1.2-2.1,1.5-3c0.2-0.8,0.3-1.7,0.3-2.3c0-0.4,0.5-0.6,1.1-0.5l1.6,0.5
	c-0.1-0.2-0.3-0.4-0.6-0.5l-2.5-0.8c-0.6-0.2-1.1,0.1-1.1,0.5c0,0.6-0.1,1.5-0.3,2.3c-0.3,0.9-1,2.3-1.5,3c-0.2,0.3,0,0.6,0.3,0.7
	l1.1,0.4C36.3,18.5,36.3,18.4,36.4,18.3z"/>
<path class="cl2" d="M38.8,19.4c0.3,0.1,0.6-0.1,0.6-0.4c0.1-0.9,0.2-2.4,0.5-3.3c0.2-0.8,0.7-1.5,1-2.1
	c0.2-0.4-0.1-0.8-0.6-1l-2.5-0.8c-0.6-0.2-1.1,0.1-1.1,0.5c0,0.6-0.1,1.5-0.3,2.3c-0.3,0.9-1,2.3-1.5,3c-0.2,0.3,0,0.6,0.3,0.7
	L38.8,19.4z"/>
</svg>
